<svg width="186" height="48" viewBox="0 0 186 48" fill="none" xmlns="http://www.w3.org/2000/svg">
<path d="M23.0175 32.93C23.1419 34.0213 22.9727 35.126 22.5274 36.13C21.8374 37.77 19.0474 40.13 14.4474 40.13C10.2674 40.13 8.73744 38.13 8.73744 36.02C8.81142 35.2588 9.09432 34.5328 9.5549 33.9222C10.0155 33.3116 10.6358 32.8402 11.3474 32.56C12.986 31.9126 14.6795 31.4139 16.4075 31.07C19.7575 30.21 20.5474 30.07 23.0274 29.21L23.0175 32.93ZM10.0175 21.77C10.0259 20.8406 10.3425 19.9402 10.9174 19.21C11.8074 18 13.8074 17.05 17.0274 17.05C20.2474 17.05 21.8374 18.05 22.5274 19.42C22.8977 20.3261 23.065 21.3023 23.0175 22.28C19.8787 23.3121 16.6662 24.1044 13.4075 24.65C10.2075 25.28 7.35745 25.74 4.51745 27.72C3.12561 28.6576 1.98608 29.9236 1.19951 31.406C0.412935 32.8885 0.00352319 34.5418 0.00744438 36.22C-0.0767744 38.4018 0.555408 40.5512 1.80745 42.34C5.41745 47.48 10.8974 47.28 12.5674 47.28C14.9909 47.2757 17.3827 46.729 19.5674 45.68C20.8273 45.127 21.9812 44.3589 22.9774 43.41V46.41H31.3374L31.3374 22.28C31.3374 20.28 31.3374 17.89 30.4274 16.08C29.8198 14.967 28.9603 14.0115 27.9174 13.29C25.7574 11.76 22.4174 10.57 16.6974 10.57C10.6374 10.57 7.36744 11.97 5.20744 13.78C4.03629 14.7595 3.09308 15.9829 2.44365 17.3646C1.79422 18.7464 1.45424 20.2532 1.44745 21.78L10.0175 21.77Z" fill="#164194"/>
<path d="M48.5174 46.45V0L40.0174 0V46.45H48.5174Z" fill="#164194"/>
<path d="M65.5874 46.45V0L57.0874 0V46.45H65.5874Z" fill="#164194"/>
<path d="M82.0675 16.7C82.6012 15.5958 83.3066 14.5832 84.1574 13.7C86.9474 10.98 91.4774 10.84 92.4474 10.84H93.1474V19.41C91.4074 19.41 84.7174 19.41 82.6974 25.82C82.176 27.6759 81.9631 29.605 82.0675 31.53V35H74.0675V11.43L82.0675 11.43V16.7Z" fill="#164194"/>
<path d="M106.237 24.57C106.447 23.39 107.347 19.48 111.237 17.88C112.341 17.4289 113.526 17.2143 114.717 17.25C116.216 17.1722 117.702 17.5601 118.971 18.3604C120.241 19.1608 121.231 20.3343 121.807 21.72C122.17 22.6377 122.408 23.5994 122.517 24.58L106.237 24.57ZM107.027 34.83C106.436 33.5288 106.097 32.1274 106.027 30.7H131.547C131.547 23.91 129.927 19.7 128.317 17.25C126.507 14.6 122.397 10.56 114.597 10.56C104.497 10.56 100.177 16.97 98.5974 20.45C97.5302 23.1054 97.0098 25.9488 97.0674 28.81C97.0597 30.8521 97.3978 32.8808 98.0674 34.81L107.027 34.83Z" fill="#164194"/>
<path d="M185.807 34.84V0L177.307 0V34.84H185.807Z" fill="#164194"/>
<path d="M168.667 34.84V22.28C168.667 20.28 168.667 17.89 167.757 16.08C167.15 14.967 166.29 14.0115 165.247 13.29C163.087 11.76 159.747 10.57 154.027 10.57C147.967 10.57 144.697 11.96 142.527 13.78C141.356 14.7595 140.413 15.9829 139.764 17.3646C139.114 18.7464 138.774 20.2532 138.767 21.78H147.267C147.277 20.8509 147.594 19.951 148.167 19.22C149.087 18 151.117 17 154.317 17C157.517 17 159.127 18 159.817 19.37C160.188 20.2761 160.355 21.2523 160.307 22.23C157.169 23.2621 153.956 24.0544 150.697 24.6C147.497 25.23 144.777 25.6 141.917 27.6C140.67 28.3905 139.61 29.4448 138.814 30.6887C138.017 31.9326 137.503 33.336 137.307 34.8H146.307C146.786 33.7704 147.626 32.9521 148.667 32.5C150.307 31.8541 152 31.3555 153.727 31.01C157.077 30.15 157.867 30.01 160.347 29.15V34.79L168.667 34.84Z" fill="#164194"/>
</svg>
