<?xml version="1.0" standalone="no"?>
<!DOCTYPE svg PUBLIC "-//W3C//DTD SVG 20010904//EN"
 "http://www.w3.org/TR/2001/REC-SVG-20010904/DTD/svg10.dtd">
<svg version="1.0" xmlns="http://www.w3.org/2000/svg"
 width="512.000000pt" height="512.000000pt" viewBox="0 0 512.000000 512.000000"
 preserveAspectRatio="xMidYMid meet">
<metadata>
Created by potrace 1.14, written by Peter Selinger 2001-2017
</metadata>
<g transform="translate(0.000000,512.000000) scale(0.100000,-0.100000)"
fill="#000000" stroke="none">
<path d="M3392 3700 c-202 -28 -374 -108 -498 -231 -117 -114 -171 -231 -181
-388 -17 -260 90 -437 337 -561 94 -47 191 -78 400 -130 268 -66 354 -99 426
-162 46 -41 64 -83 64 -150 0 -68 -26 -123 -78 -170 -78 -70 -168 -98 -319
-98 -242 0 -400 106 -429 288 l-7 42 -228 0 c-192 0 -229 -2 -229 -14 0 -50
25 -180 47 -240 36 -103 83 -175 162 -249 150 -141 346 -211 631 -224 497 -23
842 177 914 529 71 346 -109 620 -494 751 -41 14 -154 44 -250 67 -214 51
-299 80 -360 121 -86 59 -118 132 -99 229 9 47 19 63 64 107 71 69 148 94 290
94 146 0 219 -25 295 -99 43 -42 61 -69 70 -102 7 -25 14 -51 16 -57 3 -10 57
-13 230 -13 l226 0 -6 58 c-35 295 -255 519 -581 587 -92 20 -321 28 -413 15z"/>
<path d="M690 2560 l0 -1121 568 4 c606 4 617 5 757 58 194 73 332 217 380
399 19 71 19 249 0 319 -23 89 -66 162 -136 232 -77 77 -162 123 -264 142 -39
7 -69 17 -68 22 1 5 31 19 67 31 82 27 147 69 207 131 91 95 123 181 123 328
0 277 -154 462 -453 543 l-96 26 -542 4 -543 3 0 -1121z m985 715 c69 -26 147
-105 164 -168 28 -97 -1 -208 -71 -273 -80 -76 -159 -94 -420 -94 l-188 0 0
281 0 281 233 -4 c193 -4 240 -8 282 -23z m59 -883 c145 -67 217 -199 186
-346 -14 -69 -60 -132 -120 -165 -77 -43 -137 -51 -397 -51 l-243 0 0 296 0
295 263 -3 c248 -3 265 -4 311 -26z"/>
</g>
</svg>
